<svg xmlns="http://www.w3.org/2000/svg" xmlns:xlink="http://www.w3.org/1999/xlink" version="1.1" width="55.977pt" height="23.519pt" viewBox="0 0 55.977 23.519">
<defs>
<path id="font_0_4" d="M.5299988 .25898744V.2669983C.5299988 .35159303 .5119934 .41799928 .47599793 .46598817 .43998719 .5139923 .38938905 .5379944 .32398988 .5379944 .26860047 .5385895 .22399903 .51838687 .18998719 .47698976L.18499756 .5279999H.053985597V-.20300293H.19499207V.04598999C.22839356 .008590698 .2715912-.010009766 .32499696-.010009766 .3875885-.010009766 .43759156 .014587402 .47459413 .06359863 .5115967 .112594608 .5299988 .17759705 .5299988 .25898744M.3889923 .269989C.3889923 .15939331 .35539247 .10398865 .28799439 .10398865 .24339295 .10398865 .21238709 .121398929 .19499207 .1559906V.37298585C.21238709 .40638734 .24299622 .4229889 .2869873 .4229889 .31959535 .4229889 .3447876 .40979005 .3625946 .3835907 .380188 .357193 .3889923 .31939698 .3889923 .269989Z"/>
<path id="font_0_1" d="M.3600006 0H.5029907V.0079956059C.4889984 .033996583 .48199464 .07199097 .48199464 .12199402V.35099793C.48199464 .4104004 .46299745 .45639039 .4249878 .4889984 .3869934 .5215912 .33538819 .5379944 .269989 .5379944 .22659302 .5379944 .18778992 .5305939 .15359497 .5159912 .1191864 .50138857 .09259033 .48098756 .07359314 .45498658 .054595949 .42900086 .04499817 .400589 .04499817 .36999513H.18598938C.18598938 .38938905 .19259644 .40480042 .20599365 .41659547 .21939087 .42819215 .23799134 .43399049 .2619934 .43399049 .2893982 .43399049 .30918885 .42658998 .32159425 .4119873 .333786 .3973999 .33999635 .377594 .33999635 .35299684V.32299806H.2749939C.19699097 .3223877 .13719177 .30699159 .09559631 .2769928 .05378723 .24699402 .032989503 .20399475 .032989503 .147995 .032989503 .1026001 .049987794 .06498718 .083999637 .034988405 .117996219 .004989624 .16099549-.010009766 .21299744-.010009766 .26759339-.010009766 .31199647 .008987427 .34599305 .04699707 .34858705 .028396607 .35339356 .012588501 .3600006-.000015258789V0M.24398804 .09799194C.22259522 .09799194 .20559693 .10379028 .19299317 .11558533 .1803894 .12719727 .17399597 .1415863 .17399597 .15899658L.1749878 .16699219C.17959595 .21559143 .21739197 .23999024 .28799439 .23999024H.33999635V.14898682C.33198548 .1335907 .3191986 .121398929 .30158998 .11199951 .28379823 .1026001 .2645874 .09799194 .24398804 .09799194Z"/>
<path id="font_0_2" d="M.5299988 .25898744V.2669983C.5299988 .35299684 .51179507 .41958619 .47558595 .46699525 .43919374 .51438906 .38859559 .5379944 .32398988 .5379944 .27059938 .5379944 .2276001 .5189972 .19499207 .48098756V.75H.053985597V0H.18099976L.18798828 .055999757C.22259522 .011993408 .26838685-.010009766 .32499696-.010009766 .3895874-.010009766 .43998719 .013595581 .47599793 .06098938 .5119934 .10839844 .5299988 .1743927 .5299988 .25898744M.3889923 .269989C.3889923 .22599793 .3855896 .19299317 .3789978 .17098999 .36439515 .12638855 .33439637 .10398865 .2889862 .10398865 .24359131 .10398865 .21238709 .12258911 .19499207 .1599884V.36799623C.21238709 .4045868 .24339295 .4229889 .28799439 .4229889 .32139588 .4229889 .34658814 .41079713 .36358644 .38659669 .38059999 .36219789 .3889923 .32339479 .3889923 .269989Z"/>
<path id="font_0_5" d="M.37098695 .053985597 .375 0H.5069885V.5279999H.3659973V.1539917C.34799195 .12059021 .31498719 .10398865 .2669983 .10398865 .21699524 .10398865 .19198609 .1315918 .19198609 .18699646V.5279999H.050994874V.18199158C.051589967 .119400028 .06678772 .07159424 .096588138 .038986207 .12619019 .0063934328 .16938782-.010009766 .22599793-.010009766 .28799439-.009414673 .33639527 .011993408 .37098695 .053985597Z"/>
<path id="font_1_1" d="M.17399597 .26316834C.16499329 .27716065 .1639862 .27816773 .1579895 .27816773 .1349945 .27816773 .083999637 .24617005 .083999637 .2291565 .083999637 .2271576 .083999637 .22515869 .09199524 .2121582L.21899414 .0031280518C.22399903-.005859375 .23399353-.021865845 .23498535-.022872925 .23699951-.026870728 .24198914-.026870728 .24699402-.026870728 .2679901-.026870728 .31498719 .0001373291 .31999208 .021133423 .35198976 .17115784 .41099549 .31417848 .5009918 .43818666 .5519867 .50819399 .6199951 .587204 .71899417 .6612091 .73599246 .6742096 .7480011 .6832123 .7480011 .69221499 .7480011 .69921877 .7429962 .69921877 .7369995 .69921877 .6899872 .69921877 .5469971 .564209 .48999024 .49719239 .3880005 .377182 .32099916 .26316834 .2679901 .10914612L.17399597 .26316834Z"/>
<path id="font_0_3" d="M.20298767 0V.5279999H.06199646V0H.20298767M.052993776 .6649933C.052993776 .64360049 .060394288 .6261902 .07499695 .6125946 .08959961 .59880068 .108795169 .59199526 .13259888 .59199526 .15618897 .59199526 .17518616 .59880068 .18959046 .6125946 .20379639 .6261902 .21099854 .64360049 .21099854 .6649933 .21099854 .68640139 .20379639 .7037964 .18959046 .71759036 .17518616 .7312012 .1559906 .73799136 .13198853 .73799136 .10798645 .73799136 .08879089 .7312012 .07458496 .71759036 .060195924 .7037964 .052993776 .68640139 .052993776 .6649933Z"/>
<path id="font_0_6" d="M.21598816 .11399841 .46699525 .44499208V.5279999H.042999269V.4139862H.2849884L.035995485 .085998538V0H.47499085V.11399841H.21598816Z"/>
</defs>
<use data-text="p" xlink:href="#font_0_4" transform="matrix(11.9552,0,0,-11.9552,5.978,17.192999)"/>
<use data-text="a" xlink:href="#font_0_1" transform="matrix(11.9552,0,0,-11.9552,12.696823,17.192999)"/>
<use data-text="b" xlink:href="#font_0_2" transform="matrix(11.9552,0,0,-11.9552,19.10481,17.192999)"/>
<use data-text="u" xlink:href="#font_0_5" transform="matrix(11.9552,0,0,-11.9552,25.823634,17.192999)"/>
<use data-text="&#x2713;" xlink:href="#font_1_1" transform="matrix(20.6625,0,0,-20.6625,31.012001,16.793999)" fill="#00a650"/>
<use data-text="i" xlink:href="#font_0_3" transform="matrix(11.9552,0,0,-11.9552,40.759004,17.192999)"/>
<use data-text="z" xlink:href="#font_0_6" transform="matrix(11.9552,0,0,-11.9552,43.92713,17.192999)"/>
</svg>
