<svg xmlns="http://www.w3.org/2000/svg" xmlns:xlink="http://www.w3.org/1999/xlink" version="1.1" width="21.173pt" height="8.01pt" viewBox="2 0 19.173 8.01">
<defs>
<path id="font_0_2" d="M.59999087 .4937744C.59999087 .6097717 .5049896 .67578127 .33799745 .67578127H.015991211V.6507721C.085998538 .6447754 .099990848 .6287842 .099990848 .5588074V.11695862C.099990848 .054977418 .08699036 .034988405 .039993287 .0289917 .036987306 .0289917 .026992798 .026992798 .015991211 .024993897V0H.34999085V.024993897C.2709961 .034988405 .2619934 .04399109 .2619934 .11695862V.30288697C.39698792 .30387879 .43099977 .30688478 .47499085 .32489015 .55599978 .35588075 .59999087 .41685487 .59999087 .4938202V.4937744M.42799378 .48883058C.42799378 .42585755 .41600038 .38786317 .3899994 .36486817 .3659973 .34487916 .33299256 .33789063 .2619934 .33789063V.6057892C.2619934 .6287689 .2789917 .6407776 .31199647 .6407776 .394989 .6407776 .42799378 .59677127 .42799378 .48876954V.48883058Z"/>
<path id="font_0_1" d="M.61898806 .18777466C.61898806 .23277283 .59999087 .2737732 .5649872 .30477906 .5299988 .33477784 .49598695 .34977723 .42599488 .3647766 .5419922 .3987732 .58499148 .43977357 .58499148 .5157776 .58499148 .6187744 .49198915 .67578127 .32499696 .67578127H.015991211V.6507721C.084991458 .6467743 .10398865 .6307831 .10398865 .5797882V.095962528C.10398865 .04498291 .08898926 .032989503 .015991211 .024993897V0H.33799745C.5069885 0 .61898806 .07498169 .61898806 .18792725V.18777466M.44699098 .17893982C.44699098 .081970218 .4059906 .03199768 .32499696 .03199768 .2809906 .03199768 .2639923 .048980714 .2639923 .0929718V.34288026H.2939911C.39698792 .34288026 .44699098 .28889466 .44699098 .17893982M.41999818 .5088196C.41999818 .40385438 .3869934 .37586976 .2639923 .37286378V.5967865C.2639923 .632782 .2789917 .6457672 .31799317 .6457672 .3880005 .6459961 .41999818 .6029968 .41999818 .5089874V.5088196Z"/>
</defs>
<use data-text="P" xlink:href="#font_0_2" transform="matrix(-11.9552,-0,0,-11.9552,11.207,8.01)"/>
<use data-text="B" xlink:href="#font_0_1" transform="matrix(11.9552,0,0,-11.9552,10.21,8.01)"/>
</svg>
